<?xml version="1.0" standalone="no"?>
<!DOCTYPE svg PUBLIC "-//W3C//DTD SVG 20010904//EN"
 "http://www.w3.org/TR/2001/REC-SVG-20010904/DTD/svg10.dtd">
<svg version="1.0" xmlns="http://www.w3.org/2000/svg"
 width="536.000000pt" height="309.000000pt" viewBox="0 0 536.000000 309.000000"
 preserveAspectRatio="xMidYMid meet">
<metadata>
Created by potrace 1.15, written by Peter Selinger 2001-2017
</metadata>
<g transform="translate(0.000000,309.000000) scale(0.100000,-0.100000)"
fill="#000000" stroke="none">
<path d="M445 3080 c-80 -9 -128 -26 -197 -67 -101 -60 -183 -172 -219 -298
-12 -42 -14 -222 -14 -1065 0 -956 1 -1018 18 -1075 26 -84 67 -152 129 -212
99 -96 253 -224 311 -258 117 -70 -43 -65 2224 -65 1931 1 2051 2 2098 18 81
29 117 52 232 147 215 178 274 251 308 382 23 87 22 2050 0 2138 -42 161 -159
281 -334 343 -42 15 -240 17 -2271 18 -1224 1 -2252 -2 -2285 -6z m4343 -474
c149 -40 272 -175 302 -331 8 -43 10 -320 8 -980 -3 -913 -3 -920 -24 -970
-40 -94 203 -85 -2402 -83 -2264 3 -2287 3 -2327 23 -76 38 -74 1 -74 1061 -1
901 0 934 19 996 42 138 144 239 285 284 62 20 4138 20 4213 0z"/>
<path d="M2523 2005 c-208 -56 -327 -212 -340 -445 -20 -354 237 -570 589
-495 74 15 158 49 170 68 4 7 8 105 8 218 0 164 -3 209 -14 218 -9 8 -66 11
-182 9 l-169 -3 0 -45 0 -45 118 -3 118 -3 -3 -141 -3 -142 -60 -19 c-43 -13
-80 -17 -130 -14 -184 11 -299 137 -312 342 -22 333 256 504 559 343 31 -16
61 -27 67 -23 14 8 14 70 1 96 -6 10 -33 30 -60 44 -103 52 -250 68 -357 40z"/>
<path d="M1578 1999 c-17 -9 -18 -42 -18 -468 0 -507 -5 -471 65 -471 68 0 65
-9 65 216 l0 204 173 2 172 3 0 45 0 45 -172 3 -173 2 0 160 0 160 179 0 c193
0 191 -1 191 55 0 57 7 55 -239 55 -135 0 -233 -5 -243 -11z"/>
<path d="M3208 1999 c-17 -9 -18 -42 -18 -464 0 -452 0 -454 21 -466 14 -7 81
-10 203 -7 l181 3 67 33 c74 36 113 80 134 150 31 101 8 197 -61 261 -24 22
-55 43 -69 47 -14 3 -26 7 -26 9 0 1 20 22 44 46 51 51 70 107 64 185 -9 102
-69 172 -173 199 -69 17 -339 21 -367 4z m338 -108 c54 -25 78 -74 72 -148 -9
-105 -63 -143 -205 -143 l-93 0 0 155 0 155 93 0 c68 0 103 -5 133 -19z m49
-417 c79 -40 111 -171 59 -241 -46 -61 -65 -68 -205 -72 l-129 -3 0 172 0 172
118 -4 c94 -2 125 -7 157 -24z"/>
</g>
</svg>
